<svg width="15" height="15" viewBox="0 0 15 15" fill="none" xmlns="http://www.w3.org/2000/svg">
<g clip-path="url(#clip0_1_390)">
<path d="M6.93333 6.00001H8.06666V4.30001H9.76666V3.16667H8.06666V1.46667H6.93333V3.16667H5.23333V4.30001H6.93333V6.00001ZM4.66666 11.1C4.04333 11.1 3.539 11.61 3.539 12.2333C3.539 12.8567 4.04333 13.3667 4.66666 13.3667C5.29 13.3667 5.8 12.8567 5.8 12.2333C5.8 11.61 5.29 11.1 4.66666 11.1ZM10.3333 11.1C9.71 11.1 9.20566 11.61 9.20566 12.2333C9.20566 12.8567 9.71 13.3667 10.3333 13.3667C10.9567 13.3667 11.4667 12.8567 11.4667 12.2333C11.4667 11.61 10.9567 11.1 10.3333 11.1ZM4.763 9.25834L4.78 9.19034L5.29 8.26668H9.51166C9.93666 8.26668 10.3107 8.03434 10.5033 7.68301L12.6907 3.71068L11.7047 3.16667H11.699L11.0757 4.30001L9.51166 7.13334H5.53366L5.46 6.98034L4.19066 4.30001L3.65233 3.16667L3.11966 2.03334H1.26666V3.16667H2.4L4.44 7.46768L3.675 8.85601C3.58433 9.01468 3.53333 9.20168 3.53333 9.40001C3.53333 10.0233 4.04333 10.5333 4.66666 10.5333H11.4667V9.40001H4.90466C4.831 9.40001 4.763 9.33768 4.763 9.25834Z" fill="white"/>
</g>
<defs>
<clipPath id="clip0_1_390">
<rect width="13.6" height="13.6" fill="white" transform="translate(0.700012 0.899994)"/>
</clipPath>
</defs>
</svg>
